<svg version="1.1" x="0px" y="0px" viewBox="165.80509745127435 327.168 116.67766116941529 115.19999999999999" xml:space="preserve" id="svg22" xmlns="http://www.w3.org/2000/svg" style="max-height: 500px" width="116.67766116941529" height="115.19999999999999"><metadata id="metadata28">image/svg+xml</metadata><defs id="defs26"/><g id="logo-group" transform="translate(-20.224,0.92651)"><path id="path302114" style="font-variant-ligatures:none;fill:#325765;stroke:#325765;stroke-width:1.15999997;stroke-miterlimit:2" d="m 340.16,416.46 c -0.40832,-1.0022 -0.96512,-1.8931 -1.6704,-2.7098 -0.70528,-0.81664 -1.559,-1.4477 -2.5242,-1.9302 -0.96512,-0.48256 -2.0416,-0.7424 -3.1923,-0.7424 h -10.988 v 10.542 h 3.3408 v -7.5725 h 7.4611 c 0.63104,0 1.225,0.14848 1.8189,0.40832 0.5568,0.29696 1.0765,0.66816 1.5219,1.1507 0.44544,0.51968 0.77952,1.0765 1.0394,1.7446 0.25984,0.66816 0.40832,1.4106 0.40832,2.153 0,0.7424 -0.11136,1.4477 -0.33408,2.1158 -0.25984,0.70528 -0.5568,1.2621 -0.928,1.7818 -0.40832,0.51968 -0.89088,0.89088 -1.4477,1.1878 -0.5568,0.29696 -1.1878,0.40832 -1.856,0.40832 h -11.025 v 12.435 h 3.3408 v -9.4656 h 7.8694 c 1.1507,0 2.1901,-0.22272 3.1552,-0.70528 0.96512,-0.44544 1.7818,-1.0765 2.4499,-1.8931 0.66816,-0.77952 1.1878,-1.6704 1.5962,-2.7098 0.3712,-1.0022 0.5568,-2.0416 0.5568,-3.1552 0,-1.0394 -0.22272,-2.0416 -0.59392,-3.0438 z" stroke-miterlimit="2"/><path id="path302116" style="font-variant-ligatures:none;fill:#325765;stroke:#325765;stroke-width:1.15999997;stroke-miterlimit:2" d="m 351.47,437.8 c 1.4848,0 2.8954,-0.29696 4.2317,-0.89088 1.3363,-0.59392 2.4128,-1.4848 3.3037,-2.6726 l 0.0742,1.3734 c 0.0742,0.5568 0.29696,1.0394 0.66816,1.4106 0.3712,0.3712 0.89088,0.5568 1.559,0.5568 0.22272,0 0.48256,0 0.70528,-0.0371 0.22272,0 0.48256,-0.0371 0.85376,-0.11136 v -2.8211 c -0.70528,0 -1.0394,-0.40832 -1.0394,-1.1878 v -7.9066 c 0,-2.4499 -0.7424,-4.3802 -2.153,-5.7536 -1.4106,-1.3363 -3.415,-2.0416 -5.9392,-2.0416 -2.5242,0 -5.0483,0.85376 -7.5354,2.5242 l 1.0765,2.1158 c 2.153,-1.4848 4.1946,-2.2643 6.1619,-2.2643 1.6333,0 2.8954,0.48256 3.7862,1.3734 0.89088,0.89088 1.3363,2.153 1.3363,3.712 v 1.559 c -0.7424,-0.29696 -1.5962,-0.51968 -2.5613,-0.70528 -0.96512,-0.14848 -1.9302,-0.25984 -2.8582,-0.25984 -1.1878,0 -2.3014,0.14848 -3.3037,0.44544 -1.0022,0.29696 -1.856,0.70528 -2.5984,1.225 -0.7424,0.51968 -1.2992,1.1507 -1.6704,1.8931 -0.40832,0.7424 -0.59392,1.5219 -0.59392,2.4128 0,0.89088 0.14848,1.6704 0.48256,2.4128 0.33408,0.7424 0.77952,1.3734 1.3734,1.8931 0.59392,0.5568 1.2621,1.0022 2.0787,1.2992 0.77952,0.29696 1.6333,0.44544 2.5613,0.44544 z m 0.85376,-2.4499 c -0.59392,0 -1.1507,-0.0742 -1.6704,-0.29696 -0.51968,-0.1856 -1.0022,-0.44544 -1.3734,-0.81664 -0.3712,-0.33408 -0.66816,-0.7424 -0.89088,-1.225 -0.22272,-0.44544 -0.29696,-0.96512 -0.29696,-1.5219 0,-1.1136 0.48256,-2.0045 1.5219,-2.7098 1.0394,-0.66816 2.3757,-1.0394 4.009,-1.0394 1.7075,0 3.3408,0.33408 4.937,0.928 v 2.8582 c 0,0.51968 -0.25984,1.0022 -0.70528,1.4477 -0.51968,0.7424 -1.2992,1.2992 -2.3014,1.7446 -1.0022,0.44544 -2.0787,0.63104 -3.2294,0.63104 z" stroke-miterlimit="2"/><path id="path302118" style="font-variant-ligatures:none;fill:#325765;stroke:#325765;stroke-width:1.15999997;stroke-miterlimit:2" d="m 379.65,420.91 v -2.9696 c -0.14848,0 -0.29696,-0.0371 -0.44544,-0.0371 h -0.63104 c -1.2621,0.11136 -2.4128,0.59392 -3.4893,1.4106 -1.1136,0.81664 -1.9674,1.8931 -2.6355,3.2294 v -4.4915 h -3.0438 v 19.377 h 3.2666 v -11.95 c 0.51968,-1.4106 1.3734,-2.487 2.6355,-3.3037 1.2621,-0.77952 2.7098,-1.1878 4.343,-1.2621 z" stroke-miterlimit="2"/><path id="path302120" style="font-variant-ligatures:none;fill:#325765;stroke:#325765;stroke-width:1.15999997;stroke-miterlimit:2" d="m 395.23,436.47 -0.77952,-2.5984 c -0.22272,0.14848 -0.59392,0.29696 -1.1136,0.51968 -0.51968,0.22272 -1.1136,0.29696 -1.7446,0.29696 -0.59392,0 -1.0765,-0.14848 -1.4848,-0.48256 -0.44544,-0.29696 -0.66816,-0.81664 -0.70528,-1.559 v -12.027 h 4.343 v -2.5613 h -4.343 v -6.4589 h -3.2666 v 6.4589 h -2.6355 v 2.5613 h 2.6355 v 13.029 c 0,1.4106 0.40832,2.4128 1.2992,3.081 0.85376,0.66816 1.8931,0.96512 3.081,0.96512 0.51968,0 1.0022,-0.0371 1.4848,-0.11136 0.48256,-0.0742 0.928,-0.1856 1.3363,-0.33408 0.40832,-0.14848 0.77952,-0.25984 1.1136,-0.40832 0.29696,-0.14848 0.5568,-0.25984 0.77952,-0.3712 z" stroke-miterlimit="2"/><path id="path302122" style="font-variant-ligatures:none;fill:#325765;stroke:#325765;stroke-width:1.15999997;stroke-miterlimit:2" d="m 417.39,437.43 v -11.58 c 0,-1.1507 -0.11136,-2.2272 -0.29696,-3.2294 -0.1856,-0.96512 -0.48256,-1.8189 -0.928,-2.5613 -0.44544,-0.7424 -1.0394,-1.2992 -1.7818,-1.7075 -0.7424,-0.40832 -1.6704,-0.63104 -2.784,-0.63104 -1.7075,0 -3.3037,0.40832 -4.7514,1.225 -1.4477,0.81664 -2.5613,1.9302 -3.3037,3.2666 v -4.1574 h -2.9696 v 19.377 h 3.2666 v -11.693 c 0.22272,-0.7424 0.5568,-1.4106 1.0022,-2.0416 0.44544,-0.59392 0.96512,-1.1507 1.559,-1.5962 0.59392,-0.44544 1.225,-0.77952 1.8931,-1.0394 0.66816,-0.25984 1.3363,-0.40832 2.0045,-0.40832 1.2621,0 2.2272,0.48256 2.8582,1.4106 0.63104,0.96512 0.96512,2.4499 0.96512,4.5286 v 10.839 z" stroke-miterlimit="2"/><path id="path302124" style="font-variant-ligatures:none;fill:#325765;stroke:#325765;stroke-width:1.15999997;stroke-miterlimit:2" d="m 433.37,437.8 c 0.96512,0 1.8931,-0.11136 2.784,-0.3712 0.89088,-0.22272 1.6704,-0.5568 2.4128,-1.0022 0.7424,-0.44544 1.3734,-0.96512 1.9302,-1.559 0.5568,-0.59392 1.0022,-1.225 1.3363,-1.9674 l -2.8211,-0.77952 c -0.22272,0.51968 -0.51968,0.96512 -0.89088,1.3363 -0.3712,0.40832 -0.81664,0.7424 -1.2992,1.0022 -0.51968,0.29696 -1.0394,0.51968 -1.5962,0.66816 -0.59392,0.14848 -1.1507,0.22272 -1.7446,0.22272 -0.85376,0 -1.6704,-0.14848 -2.4128,-0.48256 -0.7424,-0.29696 -1.4106,-0.7424 -2.0045,-1.3363 -0.59392,-0.5568 -1.0765,-1.225 -1.4477,-2.0416 -0.3712,-0.77952 -0.59392,-1.6704 -0.66816,-2.6355 h 16.073 c 0,-0.11136 0.0371,-0.29696 0.0371,-0.51968 0,-0.22272 0.0371,-0.44544 0.0371,-0.7424 0,-1.2621 -0.25984,-2.5242 -0.70528,-3.712 -0.44544,-1.1878 -1.1136,-2.2643 -1.9302,-3.1552 -0.85376,-0.89088 -1.8931,-1.6333 -3.081,-2.1901 -1.1878,-0.51968 -2.5242,-0.81664 -3.9718,-0.81664 -1.4848,0 -2.8211,0.29696 -4.009,0.81664 -1.225,0.51968 -2.2643,1.2621 -3.1552,2.153 -0.89088,0.928 -1.559,2.0045 -2.0416,3.1923 -0.48256,1.225 -0.70528,2.5242 -0.70528,3.8605 0,1.3734 0.22272,2.6726 0.70528,3.8976 0.48256,1.225 1.1507,2.3014 2.0416,3.1923 0.85376,0.928 1.8931,1.6704 3.1181,2.1901 1.1878,0.51968 2.5242,0.77952 4.009,0.77952 z m 6.6445,-11.359 h -13.14 c 0.0742,-0.89088 0.25984,-1.7446 0.63104,-2.5242 0.3712,-0.7424 0.81664,-1.4106 1.4106,-1.9674 0.59392,-0.5568 1.2621,-1.0022 2.0416,-1.2992 0.7424,-0.29696 1.559,-0.48256 2.4499,-0.48256 0.85376,0 1.6704,0.1856 2.4499,0.48256 0.7424,0.29696 1.4106,0.7424 2.0045,1.2621 0.59392,0.5568 1.0765,1.225 1.4477,2.0045 0.3712,0.77952 0.63104,1.6333 0.70528,2.5242 z" stroke-miterlimit="2"/><path id="path302126" style="font-variant-ligatures:none;fill:#325765;stroke:#325765;stroke-width:1.15999997;stroke-miterlimit:2" d="m 459.32,420.91 v -2.9696 c -0.14848,0 -0.29696,-0.0371 -0.44544,-0.0371 h -0.63104 c -1.2621,0.11136 -2.4128,0.59392 -3.4893,1.4106 -1.1136,0.81664 -1.9674,1.8931 -2.6355,3.2294 v -4.4915 h -3.0438 v 19.377 h 3.2666 v -11.95 c 0.51968,-1.4106 1.3734,-2.487 2.6355,-3.3037 1.2621,-0.77952 2.7098,-1.1878 4.343,-1.2621 z" stroke-miterlimit="2"/><path id="path302128" style="font-variant-ligatures:none;fill:#325765;stroke:#325765;stroke-width:1.15999997;stroke-miterlimit:2" d="m 471.68,437.8 c 2.3386,0 4.1946,-0.51968 5.6051,-1.5962 1.3734,-1.0394 2.0787,-2.487 2.0787,-4.3059 0,-0.81664 -0.1856,-1.4848 -0.48256,-2.0787 -0.29696,-0.5568 -0.77952,-1.0394 -1.4106,-1.4848 -0.63104,-0.40832 -1.4106,-0.77952 -2.3757,-1.0765 -0.96512,-0.29696 -2.0787,-0.63104 -3.3408,-0.928 -0.81664,-0.1856 -1.5219,-0.3712 -2.1158,-0.5568 -0.59392,-0.14848 -1.0394,-0.3712 -1.4106,-0.59392 -0.3712,-0.22272 -0.66816,-0.48256 -0.81664,-0.77952 -0.14848,-0.29696 -0.22272,-0.66816 -0.22272,-1.1136 0,-1.1136 0.40832,-1.8931 1.225,-2.4128 0.81664,-0.51968 1.856,-0.77952 3.0438,-0.77952 1.0394,0 2.0787,0.1856 3.1181,0.5568 1.0022,0.3712 1.9302,0.89088 2.7469,1.5962 l 1.4848,-1.9674 c -0.89088,-0.7424 -1.9302,-1.3734 -3.1923,-1.856 -1.2621,-0.44544 -2.6355,-0.70528 -4.0832,-0.70528 -1.0394,0 -2.0416,0.14848 -2.9325,0.40832 -0.89088,0.25984 -1.6704,0.63104 -2.3386,1.1507 -0.66816,0.51968 -1.225,1.1507 -1.5962,1.8931 -0.3712,0.7424 -0.5568,1.5962 -0.5568,2.5613 0,0.77952 0.11136,1.4106 0.3712,1.9302 0.22272,0.51968 0.63104,0.96512 1.1878,1.3363 0.51968,0.3712 1.225,0.70528 2.0787,0.96512 0.81664,0.29696 1.8189,0.5568 3.0067,0.85376 0.89088,0.22272 1.7075,0.44544 2.4128,0.63104 0.66816,0.22272 1.2621,0.44544 1.7075,0.66816 0.44544,0.25984 0.77952,0.5568 1.0022,0.89088 0.22272,0.33408 0.33408,0.7424 0.33408,1.1878 0,1.0394 -0.44544,1.8189 -1.2621,2.3757 -0.81664,0.5568 -1.9302,0.81664 -3.3408,0.81664 -1.2621,0 -2.487,-0.1856 -3.6006,-0.63104 -1.1507,-0.44544 -2.3014,-1.0765 -3.415,-1.9674 l -1.4106,2.1901 c 1.0765,0.928 2.3757,1.6333 3.8976,2.1158 1.4848,0.48256 3.0438,0.70528 4.6029,0.70528 z" stroke-miterlimit="2"/><path id="path20" style="font-variant-ligatures:normal;fill:#df4011;stroke-width:0;stroke-miterlimit:2" d="m 350.93,354.28 c 10.036,2.9908 21.324,6.4644 21.324,20.648 0,12.351 -9.9375,20.359 -25.279,20.359 -10.323,0 -21.034,-3.9559 -28.851,-10.517 l 5.7905,-12.157 c 6.56,5.7892 16.21,9.9375 23.254,9.9375 5.6924,0 9.0699,-2.5086 9.0699,-6.7536 0,-5.5969 -6.1753,-7.4302 -13.316,-9.5527 -9.8419,-2.8946 -21.034,-6.1753 -21.034,-19.973 0,-12.157 9.8419,-20.07 25.184,-20.07 8.7807,0 17.946,2.7016 24.701,7.2365 l -5.6937,12.447 c -6.8505,-4.0527 -15.148,-6.8511 -20.455,-6.8511 -4.9216,0 -7.8162,2.1232 -7.8162,5.693 0,5.4032 6.0797,7.2365 13.026,9.3597 z" class="c1" stroke-miterlimit="2"/><path id="path23" style="font-variant-ligatures:normal;fill:#df4011;stroke-width:0;stroke-miterlimit:2" d="m 428.67,382.35 v 12.351 h -50.463 v -67.542 h 49.402 v 12.351 h -34.35 v 42.745 z m -25.955,-15.245 1.7365,-12.351 h 19.876 v 12.351 z" class="c1" stroke-miterlimit="2"/><path id="path26" style="font-variant-ligatures:normal;fill:#df4011;stroke-width:0;stroke-miterlimit:2" d="m 485.47,382.35 v 12.351 h -50.463 v -67.542 h 49.402 V 339.51 H 450.06 v 42.745 z m -25.955,-15.245 1.7365,-12.351 h 19.876 v 12.351 z" class="c1" stroke-miterlimit="2"/><path id="path29" style="font-variant-ligatures:normal;fill:#df4011;stroke-width:0;stroke-miterlimit:2" d="m 518.92,326.97 c 20.262,0 33.868,13.605 33.868,33.771 0,19.876 -14.184,33.771 -34.447,33.771 h -26.54 v -67.54 h 27.21 z m 0.48157,54.999 c 10.614,0 18.044,-8.6838 18.044,-21.131 0,-12.544 -7.7194,-21.324 -18.815,-21.324 h -11.772 v 42.359 h 12.447 z" class="c1" stroke-miterlimit="2"/><path id="path32" style="font-variant-ligatures:normal;fill:#df4011;stroke-width:0;stroke-miterlimit:2" d="m 615.24,354.28 c 10.036,2.9908 21.324,6.4644 21.324,20.648 0,12.351 -9.9375,20.359 -25.279,20.359 -10.323,0 -21.034,-3.9559 -28.851,-10.517 l 5.7905,-12.157 c 6.56,5.7892 16.21,9.9375 23.254,9.9375 5.6924,0 9.0699,-2.5086 9.0699,-6.7536 0,-5.5969 -6.1753,-7.4302 -13.316,-9.5527 -9.8419,-2.8946 -21.034,-6.1753 -21.034,-19.973 0,-12.157 9.8419,-20.07 25.184,-20.07 8.7807,0 17.946,2.7016 24.701,7.2365 l -5.6937,12.447 c -6.8505,-4.0527 -15.148,-6.8511 -20.455,-6.8511 -4.9216,0 -7.8162,2.1232 -7.8162,5.693 0,5.4032 6.0797,7.2365 13.026,9.3597 z" class="c1" stroke-miterlimit="2"/><path id="path35" style="font-variant-ligatures:normal;fill:#df4011;stroke-width:0;stroke-miterlimit:2" d="m 676.19,381.97 c 6.5613,0 12.832,-3.2806 16.788,-8.4915 l 13.895,6.1753 c -6.3676,9.4559 -17.56,15.534 -30.876,15.534 -20.841,0 -36.569,-14.859 -36.569,-34.638 0,-19.492 15.728,-34.254 36.569,-34.254 13.412,0 24.701,6.0784 31.07,15.534 l -13.991,6.2721 c -3.9559,-5.2108 -10.228,-8.4915 -16.885,-8.4915 -11.289,0 -21.614,9.2629 -21.614,21.131 0,11.772 10.422,21.325 21.517,21.325 z" class="c1" stroke-miterlimit="2"/><path transform="matrix(1.34,0,0,1.34,606.51,226.74)" style="font-variant-ligatures:normal;fill:#df4011;stroke-width:0;stroke-miterlimit:2" d="M 126.21,125.2 106.19,74.798 H 94.24 L 73.79,125.2 h 11.521 l 6.768,-18.36 7.777,-20.097 14.334,38.457 z" id="polygon38"/><path id="path41" style="font-variant-ligatures:normal;fill:#df4011;stroke-width:0;stroke-miterlimit:2" d="m 793.39,372.41 c -1.3505,2.9914 -3.7635,6.8505 -8.0086,9.9388 -2.5086,1.7365 -5.0172,2.7978 -7.2365,3.473 v -58.85 h 15.148 v 45.543 z" class="c1" stroke-miterlimit="2"/><path id="path43" style="font-variant-ligatures:normal;fill:#325765;stroke-width:0;stroke-miterlimit:2" d="m 820.89,381.2 v 13.218 h -35.121 c 1.9302,-1.3505 3.9559,-2.9914 5.8861,-5.2095 2.5086,-2.8946 4.0527,-5.7892 5.0171,-8.0086 z" class="c3" stroke-miterlimit="2"/><path id="path46" style="font-variant-ligatures:normal;fill:#df4011;stroke-width:0;stroke-miterlimit:2" d="m 876.36,382.35 v 12.351 h -50.463 v -67.542 h 49.402 V 339.51 H 840.95 v 42.745 z m -25.95,-15.24 1.7365,-12.351 h 19.876 v 12.351 z" class="c1" stroke-miterlimit="2"/><path id="icon" d="m 274.26,327.45 h -26.584 v 22.458 l 6.389,0.0642 c 3.514,0.0354 6.6982,0.0744 7.0756,0.0865 l 0.6869,0.0227 -10.275,10.188 c -5.651,5.6035 -11.329,11.237 -12.618,12.518 l -2.3429,2.3298 7.78,8.058 c 4.2802,4.4325 7.7928,8.0599 7.8056,8.0599 0.0135,0 5.875,-5.7626 13.025,-12.806 7.1508,-7.0431 13.005,-12.801 13.009,-12.796 0.004,0.006 -0.0766,3.2003 -0.18005,7.0992 -0.10351,3.899 -0.18928,7.1649 -0.18999,7.2573 l -0.002,0.16836 h 23.004 v -52.709 z m -30.757,0.0762 c -0.40443,0.003 -1.0545,0.0177 -1.4444,0.0326 -0.38989,0.0149 -1.0038,0.0454 -1.3646,0.0677 -0.36047,0.022 -1.0144,0.0719 -1.4532,0.11059 -0.43846,0.0386 -1.0765,0.10172 -1.4178,0.14 -0.34098,0.0383 -0.97117,0.11804 -1.4001,0.17723 -0.42889,0.0592 -1.1147,0.1634 -1.5241,0.23181 -0.40939,0.068 -1.1509,0.20416 -1.6482,0.30234 -0.49694,0.0982 -1.2785,0.26549 -1.7368,0.37182 -0.45795,0.10634 -1.08,0.25804 -1.3824,0.33673 -0.30199,0.0787 -0.87937,0.23748 -1.2828,0.35268 -0.40301,0.11555 -0.96944,0.28249 -1.2583,0.3711 -0.28852,0.089 -0.81205,0.25839 -1.1629,0.37643 -0.35091,0.11803 -0.94924,0.32716 -1.3292,0.46433 -0.37997,0.13717 -1.1378,0.42888 -1.6836,0.64757 -0.54585,0.21905 -1.3433,0.5533 -1.7722,0.74326 -0.42888,0.18963 -1.1626,0.52777 -1.6305,0.75142 -0.46787,0.22331 -1.2016,0.59052 -1.6305,0.81594 -0.42888,0.22578 -1.1066,0.59299 -1.5064,0.81664 -0.39946,0.2233 -1.0804,0.61922 -1.5125,0.87975 -0.43207,0.26052 -1.086,0.66739 -1.4532,0.90384 -0.36722,0.23678 -0.97047,0.6391 -1.3409,0.89359 -0.3704,0.25449 -0.93648,0.65433 -1.2583,0.88791 -0.32149,0.23358 -0.8241,0.60894 -1.1165,0.83366 -0.29242,0.22507 -0.76277,0.59476 -1.0456,0.82199 -0.28249,0.22685 -0.73727,0.60008 -1.0102,0.82907 -0.27293,0.22897 -0.82301,0.70749 -1.2228,1.0634 -0.39947,0.35586 -1.0935,0.99743 -1.5419,1.426 -0.44838,0.42852 -1.142,1.1211 -1.5419,1.5387 -0.39946,0.41789 -0.95026,1.0066 -1.2236,1.309 -0.27329,0.30199 -0.72803,0.82052 -1.0113,1.152 -0.28285,0.33141 -0.69048,0.81772 -0.90563,1.0811 -0.21515,0.263 -0.5898,0.7337 -0.83226,1.0456 -0.24244,0.31191 -0.65681,0.86203 -0.92048,1.2228 -0.26371,0.36048 -0.62384,0.86311 -0.8,1.1165 -0.17616,0.25343 -0.47993,0.70004 -0.67486,0.99246 -0.19495,0.29242 -0.50934,0.7752 -0.69825,1.0726 -0.18928,0.29774 -0.53239,0.85597 -0.76277,1.2406 -0.2304,0.38493 -0.61497,1.0506 -0.85425,1.4794 -0.23926,0.42889 -0.65574,1.2104 -0.92514,1.7368 -0.26939,0.52636 -0.64369,1.2838 -0.83156,1.6836 -0.18786,0.39946 -0.47744,1.0375 -0.64368,1.4178 -0.16624,0.37997 -0.43456,1.018 -0.59654,1.4178 -0.16163,0.39946 -0.42144,1.0697 -0.57776,1.4887 -0.15595,0.41895 -0.40548,1.1208 -0.55471,1.5596 -0.14887,0.43845 -0.39628,1.2122 -0.5494,1.7191 -0.15312,0.50686 -0.36685,1.2484 -0.47496,1.6482 -0.10811,0.39946 -0.26194,0.99775 -0.34169,1.3292 -0.0798,0.33141 -0.2148,0.92157 -0.30022,1.3115 -0.0854,0.3899 -0.2116,1.0038 -0.28072,1.3646 -0.0691,0.36083 -0.18077,0.99067 -0.24847,1.4001 -0.0677,0.40939 -0.1556,0.97544 -0.19531,1.2583 -0.0397,0.2825 -0.10385,0.76914 -0.14248,1.0811 -0.039,0.31192 -0.10244,0.88613 -0.14178,1.276 -0.039,0.3899 -0.0946,1.0357 -0.1237,1.4355 -0.0287,0.39946 -0.072,1.0853 -0.0957,1.5241 -0.0238,0.43845 -0.0432,1.6188 -0.0432,2.6229 0,1.0038 0.0195,2.1841 0.0432,2.6229 0.0237,0.43845 0.067,1.1243 0.0957,1.5241 0.0291,0.39946 0.0847,1.0456 0.1237,1.4355 0.0394,0.38989 0.10279,0.96409 0.14178,1.276 0.0386,0.31191 0.10279,0.79821 0.14248,1.0811 0.0397,0.2825 0.12761,0.8489 0.19531,1.2583 0.0677,0.40939 0.17935,1.0392 0.24847,1.4001 0.0691,0.36047 0.19531,0.97473 0.28072,1.3646 0.0854,0.38989 0.22047,0.98003 0.30022,1.3115 0.0797,0.33141 0.23217,0.92438 0.33886,1.3175 0.10633,0.39309 0.28994,1.0392 0.40832,1.4355 0.11804,0.39628 0.31937,1.0396 0.44732,1.4295 0.12796,0.3899 0.36756,1.0836 0.53274,1.5412 0.16517,0.45759 0.43243,1.1676 0.59406,1.5773 0.16127,0.40974 0.4381,1.0825 0.61497,1.4947 0.17687,0.41258 0.47567,1.0825 0.66421,1.4887 0.18857,0.40656 0.54798,1.1456 0.7986,1.6429 0.25095,0.49729 0.6256,1.2151 0.83257,1.595 0.20736,0.37997 0.55259,0.99425 0.76736,1.3646 0.21515,0.3704 0.61461,1.0322 0.88823,1.471 0.27363,0.43845 0.72057,1.131 0.99354,1.5383 0.27257,0.40762 0.71917,1.0534 0.99208,1.4355 0.27293,0.3821 0.69615,0.95772 0.94038,1.2796 0.24457,0.32149 0.63553,0.8241 0.86948,1.1165 0.23358,0.29242 0.5774,0.71457 0.76417,0.93859 0.18645,0.22365 0.50474,0.59831 0.70712,0.83296 0.20204,0.23429 0.66459,0.75282 1.0272,1.1527 0.36296,0.39946 1.1304,1.198 1.706,1.7744 0.57528,0.57634 1.3572,1.3324 1.7372,1.6801 0.38033,0.34771 1.0343,0.92725 1.4532,1.2877 0.41931,0.36012 1.0733,0.90423 1.4532,1.2087 0.38033,0.30448 1.0102,0.79394 1.4001,1.0874 0.38989,0.29384 0.95631,0.7096 1.2583,0.92405 0.30234,0.21444 0.90843,0.62987 1.3469,0.92266 0.43881,0.29242 0.99705,0.65713 1.2406,0.80956 0.24386,0.15276 0.70641,0.43632 1.0279,0.6302 0.32184,0.19389 0.80031,0.47568 1.0634,0.62632 0.26335,0.15099 0.75779,0.4264 1.0988,0.61214 0.34134,0.18608 1.0669,0.5618 1.6131,0.83474 0.54585,0.27293 1.2399,0.61107 1.5419,0.7511 0.30199,0.14037 0.83723,0.38033 1.1899,0.53381 0.35232,0.15347 0.97436,0.41399 1.3824,0.57881 0.40761,0.16482 1.0924,0.43066 1.5213,0.59051 0.42888,0.15951 1.2026,0.43137 1.7191,0.60328 0.51679,0.17226 1.2583,0.40797 1.6482,0.52423 0.3899,0.11626 1.0679,0.30872 1.5064,0.42746 0.43882,0.1191 1.1644,0.30271 1.6128,0.40869 0.44838,0.10562 1.0148,0.23429 1.2583,0.28533 0.24386,0.0514 0.73019,0.14923 1.0811,0.21692 0.35091,0.0681 0.96518,0.17829 1.3646,0.24457 0.39983,0.0666 1.0059,0.16093 1.3469,0.20948 0.34134,0.0486 0.96339,0.12867 1.3824,0.17759 0.41932,0.0493 1.0254,0.11377 1.3469,0.14319 0.32184,0.0298 0.93572,0.078 1.3646,0.10704 0.42889,0.0291 1.1708,0.0691 1.6482,0.089 0.4778,0.0195 1.455,0.0358 2.1724,0.0358 0.71706,3.6e-4 1.6982,-0.0159 2.1799,-0.0354 0.4817,-0.0198 1.2349,-0.0603 1.6734,-0.09 0.43882,-0.0294 1.2044,-0.0939 1.7014,-0.1432 0.4973,-0.0489 1.3186,-0.14391 1.8254,-0.21054 0.50687,-0.0666 1.2647,-0.17794 1.6836,-0.24705 0.41896,-0.0691 1.0581,-0.18113 1.4196,-0.24883 0.36153,-0.0677 0.98359,-0.19388 1.3824,-0.28072 0.39876,-0.0865 0.96409,-0.2148 1.2565,-0.28533 0.29242,-0.0702 0.91947,-0.23146 1.3933,-0.35835 0.4739,-0.12654 1.2076,-0.33425 1.6305,-0.4615 0.42286,-0.12689 1.1484,-0.35764 1.6124,-0.51288 0.46362,-0.15525 1.1814,-0.40762 1.595,-0.5611 0.41329,-0.15312 1.0704,-0.40655 1.4603,-0.56251 0.3899,-0.15632 1.0201,-0.41897 1.4001,-0.58414 0.38033,-0.16482 0.94637,-0.41683 1.2583,-0.55968 0.31192,-0.14319 0.98997,-0.47141 1.5064,-0.72981 0.51643,-0.25839 1.2104,-0.61638 1.5419,-0.7954 0.33141,-0.179 0.88185,-0.48525 1.2228,-0.68054 0.34134,-0.1953 0.88364,-0.51431 1.2051,-0.70851 0.32184,-0.19424 0.8482,-0.52105 1.1697,-0.72624 0.32184,-0.20488 0.88013,-0.57244 1.2406,-0.81664 0.36083,-0.24386 0.87905,-0.60327 1.152,-0.79822 0.27293,-0.19529 0.78336,-0.56995 1.1342,-0.83295 0.35091,-0.263 0.98112,-0.75321 1.4001,-1.0888 0.41932,-0.33567 1.0492,-0.85667 1.4001,-1.158 0.3509,-0.30128 0.82939,-0.71954 1.0634,-0.93011 0.23394,-0.21018 0.81632,-0.75461 1.2937,-1.2094 0.4778,-0.45476 1.237,-1.2143 1.6875,-1.6882 0.4505,-0.47354 0.98468,-1.0445 1.1874,-1.2693 0.20238,-0.22437 0.52104,-0.58307 0.70749,-0.79751 0.1868,-0.2141 0.57067,-0.66849 0.85349,-1.0095 0.28285,-0.34134 0.69156,-0.84571 0.90773,-1.1211 0.21657,-0.27577 0.64719,-0.84182 0.9574,-1.2583 0.31015,-0.41683 0.75321,-1.0286 0.9843,-1.36 0.23146,-0.33141 0.62986,-0.92157 0.88574,-1.3115 0.25592,-0.38989 0.65714,-1.0201 0.89142,-1.4001 0.23429,-0.38033 0.61,-1.0102 0.83474,-1.4001 0.22508,-0.3899 0.56429,-0.99603 0.75391,-1.3469 0.18999,-0.35091 0.56464,-1.0768 0.83258,-1.6128 0.26832,-0.53628 0.62737,-1.2778 0.79789,-1.6482 0.17049,-0.3704 0.47319,-1.0563 0.67307,-1.5241 0.19956,-0.46787 0.49907,-1.2016 0.66568,-1.6305 0.16624,-0.42888 0.44626,-1.1863 0.62171,-1.6836 0.17545,-0.4973 0.41754,-1.2151 0.53805,-1.595 0.12051,-0.38033 0.33638,-1.0995 0.48028,-1.5986 0.14355,-0.49907 0.36438,-1.3203 0.49056,-1.8254 0.12618,-0.50474 0.31759,-1.3249 0.42534,-1.8218 0.10775,-0.49729 0.26017,-1.2547 0.3385,-1.6836 0.0783,-0.42888 0.19034,-1.0828 0.24882,-1.4532 0.0581,-0.3704 0.15348,-1.0325 0.21126,-1.471 0.0581,-0.43881 0.14603,-1.2044 0.19565,-1.7014 0.0493,-0.49729 0.11378,-1.2388 0.1432,-1.6482 0.0291,-0.40939 0.0684,-1.1193 0.0875,-1.5773 0.0191,-0.45831 0.0443,-1.2119 0.0563,-1.6748 l 0.022,-0.84182 h -22.618 v 0.5618 c 0,0.30908 -0.0163,0.88753 -0.0365,1.2849 -0.0198,0.3977 -0.0684,1.074 -0.10775,1.5028 -0.0397,0.42888 -0.1035,1.019 -0.14249,1.3115 -0.0386,0.29242 -0.11839,0.81702 -0.17688,1.1658 -0.0584,0.34878 -0.15453,0.87516 -0.21337,1.1697 -0.0588,0.29455 -0.20097,0.91839 -0.31582,1.3862 -0.11448,0.46787 -0.30411,1.1697 -0.42108,1.5596 -0.11662,0.38989 -0.31653,1.0138 -0.44342,1.3859 -0.12725,0.37253 -0.37608,1.0386 -0.55259,1.4805 -0.17687,0.44165 -0.44023,1.0658 -0.5859,1.387 -0.14533,0.32113 -0.42605,0.90703 -0.62384,1.3022 -0.19742,0.39486 -0.50261,0.97333 -0.67804,1.2853 -0.17545,0.31192 -0.43881,0.76634 -0.58555,1.0102 -0.14675,0.24351 -0.46079,0.73797 -0.69794,1.0988 -0.23676,0.36047 -0.60114,0.89142 -0.80886,1.1796 -0.20806,0.28817 -0.54195,0.73478 -0.74185,0.99246 -0.19991,0.25768 -0.53061,0.66778 -0.73479,0.91162 -0.20416,0.24351 -0.5618,0.65822 -0.79541,0.92157 -0.23322,0.26301 -0.83225,0.88505 -1.331,1.3824 -0.49835,0.49729 -1.1934,1.1534 -1.5443,1.4589 -0.35091,0.30518 -0.82161,0.70252 -1.0456,0.88294 -0.22401,0.18041 -0.65465,0.5136 -0.95701,0.74077 -0.30199,0.22721 -0.80459,0.59016 -1.1165,0.80637 -0.31192,0.21587 -0.79044,0.53274 -1.0634,0.70393 -0.27293,0.1712 -0.75958,0.46504 -1.0811,0.65325 -0.32149,0.18786 -0.87198,0.49516 -1.2229,0.68231 -0.3509,0.18751 -0.93291,0.47886 -1.2937,0.64796 -0.36083,0.16943 -0.92686,0.42322 -1.2583,0.56464 -0.33141,0.14107 -0.88153,0.3619 -1.2228,0.48985 -0.34098,0.12831 -0.85954,0.31511 -1.152,0.41542 -0.29242,0.0999 -0.93821,0.2988 -1.4355,0.44164 -0.49694,0.14284 -1.2547,0.34027 -1.6836,0.43917 -0.42889,0.0989 -1.035,0.22685 -1.3469,0.28462 -0.31192,0.0577 -0.83015,0.14568 -1.152,0.19566 -0.32149,0.05 -0.85597,0.12228 -1.1874,0.16091 -0.33141,0.0386 -0.92935,0.0982 -1.3292,0.13257 -0.57634,0.0496 -1.108,0.0624 -2.5698,0.0624 -1.4628,0 -1.9931,-0.0127 -2.5698,-0.0624 -0.39947,-0.0344 -0.99775,-0.0943 -1.3292,-0.13327 -0.33141,-0.039 -0.81772,-0.10315 -1.0811,-0.14249 -0.263,-0.0393 -0.74154,-0.11946 -1.0634,-0.17794 -0.32149,-0.0581 -0.87198,-0.16907 -1.2229,-0.24599 -0.3509,-0.0769 -0.94107,-0.22011 -1.3115,-0.31794 -0.3704,-0.0982 -0.95421,-0.26477 -1.2973,-0.37075 -0.34311,-0.10598 -0.92546,-0.29845 -1.2938,-0.42782 -0.36862,-0.12938 -0.90913,-0.33071 -1.2016,-0.44697 -0.29242,-0.11661 -0.75499,-0.30837 -1.0279,-0.4264 -0.27293,-0.11803 -0.84998,-0.38635 -1.2821,-0.59619 -0.43207,-0.20983 -1.086,-0.54549 -1.4532,-0.74613 -0.36722,-0.20026 -0.89072,-0.49941 -1.1636,-0.66459 -0.27293,-0.16517 -0.71955,-0.44448 -0.99246,-0.62099 -0.27293,-0.17616 -0.67951,-0.44803 -0.90385,-0.60434 -0.22401,-0.15631 -0.66281,-0.47496 -0.97474,-0.7082 -0.31191,-0.23322 -0.72662,-0.55259 -0.92157,-0.70928 -0.19494,-0.15667 -0.51395,-0.42073 -0.7089,-0.58627 -0.19494,-0.16552 -0.5859,-0.50898 -0.8684,-0.76315 -0.28249,-0.25414 -0.81734,-0.76525 -1.1885,-1.136 -0.37111,-0.3704 -0.89747,-0.92196 -1.1697,-1.225 -0.27222,-0.30305 -0.66779,-0.75748 -0.87905,-1.0102 -0.2109,-0.25237 -0.56287,-0.69048 -0.78228,-0.97295 -0.2194,-0.2825 -0.56322,-0.74365 -0.76385,-1.024 -0.20097,-0.28073 -0.54444,-0.78298 -0.76385,-1.1165 -0.21941,-0.33354 -0.56642,-0.88574 -0.77093,-1.2267 -0.20488,-0.34134 -0.49482,-0.8436 -0.64477,-1.1165 -0.14993,-0.27292 -0.45334,-0.86311 -0.67454,-1.3115 -0.22082,-0.44838 -0.50864,-1.0626 -0.63941,-1.3646 -0.13079,-0.30235 -0.35729,-0.85107 -0.50261,-1.22 -0.14569,-0.36863 -0.39876,-1.0704 -0.56216,-1.5596 -0.16305,-0.48879 -0.3697,-1.1442 -0.45866,-1.456 -0.0893,-0.31192 -0.23252,-0.85425 -0.3183,-1.2051 -0.0861,-0.35091 -0.21231,-0.91061 -0.28072,-1.2442 -0.0688,-0.33318 -0.16482,-0.8436 -0.21338,-1.1342 -0.0489,-0.29029 -0.12122,-0.75958 -0.16127,-1.042 -0.0397,-0.28286 -0.10315,-0.82518 -0.14108,-1.2051 -0.0379,-0.38033 -0.0893,-0.97831 -0.11448,-1.3292 -0.0255,-0.36083 -0.045,-1.2615 -0.0447,-2.0735 0,-0.79363 0.0202,-1.7209 0.045,-2.0735 0.0248,-0.3509 0.0762,-0.94923 0.11413,-1.3292 0.0379,-0.38033 0.10137,-0.92266 0.14107,-1.2051 0.0401,-0.28286 0.11236,-0.75181 0.16128,-1.0421 0.0486,-0.29065 0.14461,-0.80108 0.21337,-1.1342 0.0684,-0.33354 0.19459,-0.8932 0.28073,-1.2442 0.0858,-0.3509 0.22897,-0.8932 0.31829,-1.2051 0.089,-0.31191 0.29561,-0.96728 0.45902,-1.4564 0.1634,-0.48914 0.43278,-1.231 0.59831,-1.6482 0.16553,-0.41755 0.39946,-0.9822 0.51963,-1.2551 0.12015,-0.27293 0.40797,-0.87905 0.63979,-1.3469 0.23146,-0.46788 0.58094,-1.1339 0.7759,-1.4798 0.19531,-0.34595 0.50935,-0.88045 0.69794,-1.1874 0.18821,-0.30695 0.54231,-0.85316 0.78616,-1.214 0.24421,-0.36083 0.60327,-0.87089 0.79821,-1.1342 0.19495,-0.26336 0.53132,-0.70144 0.74754,-0.97404 0.21586,-0.27221 0.5501,-0.67912 0.74224,-0.90384 0.19211,-0.22437 0.5533,-0.63163 0.8028,-0.90455 0.24918,-0.27293 0.79395,-0.83188 1.2101,-1.2424 0.41612,-0.41046 0.98111,-0.94497 1.2551,-1.1874 0.27399,-0.2428 0.7284,-0.63021 1.0102,-0.86094 0.28145,-0.23078 0.81491,-0.64726 1.1853,-0.92553 0.3704,-0.27788 0.96868,-0.70501 1.3292,-0.94853 0.36083,-0.24351 0.90633,-0.59654 1.2126,-0.78476 0.30624,-0.18786 0.81664,-0.48773 1.1342,-0.66638 0.31759,-0.17864 0.9106,-0.49092 1.3178,-0.69437 0.40726,-0.20345 0.94675,-0.46433 1.1988,-0.57988 0.25202,-0.11555 0.72452,-0.31901 1.0495,-0.45263 0.32503,-0.13363 0.727,-0.29455 0.8925,-0.358 0.16588,-0.0634 0.54869,-0.20203 0.85068,-0.30837 0.30235,-0.10598 0.8911,-0.29632 1.3087,-0.42286 0.41754,-0.12654 1.1034,-0.31617 1.5241,-0.42179 0.42074,-0.10527 1.124,-0.263 1.5624,-0.35055 0.43881,-0.0876 1.0686,-0.20097 1.4001,-0.25237 0.33141,-0.051 0.94566,-0.13115 1.3646,-0.17793 0.41932,-0.0464 0.96945,-0.10208 1.2228,-0.12335 0.25343,-0.0216 0.98322,-0.0482 1.6216,-0.0599 l 1.1608,-0.0206 v -22.615 z" style="fill:#325765;stroke-width:0.63749999"/></g></svg>